<svg xmlns="http://www.w3.org/2000/svg" xmlns:xlink="http://www.w3.org/1999/xlink" width="76" zoomAndPan="magnify" viewBox="0 0 56.879997 56.999997" height="76" preserveAspectRatio="xMidYMid meet" version="1.0"><defs><clipPath id="b2b751f481"><path d="M 0 0.0585938 L 56.574219 0.0585938 L 56.574219 56.632812 L 0 56.632812 Z M 0 0.0585938 " clip-rule="nonzero"/></clipPath></defs><g clip-path="url(#b2b751f481)"><path fill="#000000" d="M 0 0.0585938 L 56.574219 0.0585938 L 56.574219 56.632812 L 0 56.632812 Z M 0 0.0585938 " fill-opacity="1" fill-rule="nonzero"/></g><path stroke-linecap="butt" transform="matrix(1.529015, 0, 0, 1.529015, -0.000000000000005318, 0.059999)" fill-opacity="1" fill="#000000" fill-rule="nonzero" stroke-linejoin="miter" d="M 2.000369 2.50018 L 9.000381 2.50018 M 11.00075 2.50018 L 16.000394 2.50018 M 18.000763 2.50018 L 23.999314 2.50018 M 25.000776 2.50018 L 25.999683 2.50018 M 28.000051 2.50018 L 35.000064 2.50018 M 2.000369 3.499087 L 2.999276 3.499087 M 7.99892 3.499087 L 9.000381 3.499087 M 11.00075 3.499087 L 11.999657 3.499087 M 14.998933 3.499087 L 20.001131 3.499087 M 21.998945 3.499087 L 23.000407 3.499087 M 25.999683 3.499087 L 27.001144 3.499087 M 28.000051 3.499087 L 28.998958 3.499087 M 34.001157 3.499087 L 35.000064 3.499087 M 2.000369 4.500549 L 2.999276 4.500549 M 4.000737 4.500549 L 7.000013 4.500549 M 7.99892 4.500549 L 9.000381 4.500549 M 9.999288 4.500549 L 11.00075 4.500549 M 11.999657 4.500549 L 16.000394 4.500549 M 18.000763 4.500549 L 21.998945 4.500549 M 23.000407 4.500549 L 25.000776 4.500549 M 25.999683 4.500549 L 27.001144 4.500549 M 28.000051 4.500549 L 28.998958 4.500549 M 30.00042 4.500549 L 32.999695 4.500549 M 34.001157 4.500549 L 35.000064 4.500549 M 2.000369 5.499456 L 2.999276 5.499456 M 4.000737 5.499456 L 7.000013 5.499456 M 7.99892 5.499456 L 9.000381 5.499456 M 9.999288 5.499456 L 11.00075 5.499456 M 11.999657 5.499456 L 13.001119 5.499456 M 16.000394 5.499456 L 16.999301 5.499456 M 18.000763 5.499456 L 18.99967 5.499456 M 21.998945 5.499456 L 23.000407 5.499456 M 23.999314 5.499456 L 25.000776 5.499456 M 28.000051 5.499456 L 28.998958 5.499456 M 30.00042 5.499456 L 32.999695 5.499456 M 34.001157 5.499456 L 35.000064 5.499456 M 2.000369 6.500918 L 2.999276 6.500918 M 4.000737 6.500918 L 7.000013 6.500918 M 7.99892 6.500918 L 9.000381 6.500918 M 9.999288 6.500918 L 14.000026 6.500918 M 16.999301 6.500918 L 18.000763 6.500918 M 20.001131 6.500918 L 21.000038 6.500918 M 23.999314 6.500918 L 25.999683 6.500918 M 28.000051 6.500918 L 28.998958 6.500918 M 30.00042 6.500918 L 32.999695 6.500918 M 34.001157 6.500918 L 35.000064 6.500918 M 2.000369 7.499825 L 2.999276 7.499825 M 7.99892 7.499825 L 9.000381 7.499825 M 9.999288 7.499825 L 14.000026 7.499825 M 16.000394 7.499825 L 18.99967 7.499825 M 21.998945 7.499825 L 23.999314 7.499825 M 28.000051 7.499825 L 28.998958 7.499825 M 34.001157 7.499825 L 35.000064 7.499825 M 2.000369 8.498732 L 9.000381 8.498732 M 9.999288 8.498732 L 11.00075 8.498732 M 11.999657 8.498732 L 13.001119 8.498732 M 14.000026 8.498732 L 14.998933 8.498732 M 16.000394 8.498732 L 16.999301 8.498732 M 18.000763 8.498732 L 18.99967 8.498732 M 20.001131 8.498732 L 21.000038 8.498732 M 21.998945 8.498732 L 23.000407 8.498732 M 23.999314 8.498732 L 25.000776 8.498732 M 25.999683 8.498732 L 27.001144 8.498732 M 28.000051 8.498732 L 35.000064 8.498732 M 9.999288 9.500193 L 11.00075 9.500193 M 13.001119 9.500193 L 14.998933 9.500193 M 16.999301 9.500193 L 18.000763 9.500193 M 23.000407 9.500193 L 25.000776 9.500193 M 25.999683 9.500193 L 27.001144 9.500193 M 2.000369 10.4991 L 2.999276 10.4991 M 4.000737 10.4991 L 9.000381 10.4991 M 11.00075 10.4991 L 11.999657 10.4991 M 13.001119 10.4991 L 14.000026 10.4991 M 14.998933 10.4991 L 18.000763 10.4991 M 18.99967 10.4991 L 20.001131 10.4991 M 21.998945 10.4991 L 23.000407 10.4991 M 23.999314 10.4991 L 25.000776 10.4991 M 28.000051 10.4991 L 32.999695 10.4991 M 2.000369 11.500562 L 2.999276 11.500562 M 13.001119 11.500562 L 14.998933 11.500562 M 16.000394 11.500562 L 16.999301 11.500562 M 18.000763 11.500562 L 18.99967 11.500562 M 21.000038 11.500562 L 23.999314 11.500562 M 25.000776 11.500562 L 25.999683 11.500562 M 28.000051 11.500562 L 30.00042 11.500562 M 30.999327 11.500562 L 35.000064 11.500562 M 2.999276 12.499469 L 7.000013 12.499469 M 7.99892 12.499469 L 9.999288 12.499469 M 11.999657 12.499469 L 13.001119 12.499469 M 14.000026 12.499469 L 14.998933 12.499469 M 16.999301 12.499469 L 18.000763 12.499469 M 20.001131 12.499469 L 21.000038 12.499469 M 21.998945 12.499469 L 25.000776 12.499469 M 27.001144 12.499469 L 28.998958 12.499469 M 30.00042 12.499469 L 30.999327 12.499469 M 32.000788 12.499469 L 34.001157 12.499469 M 2.000369 13.50093 L 4.000737 13.50093 M 6.001106 13.50093 L 7.000013 13.50093 M 11.999657 13.50093 L 13.001119 13.50093 M 16.000394 13.50093 L 16.999301 13.50093 M 21.000038 13.50093 L 23.999314 13.50093 M 27.001144 13.50093 L 28.000051 13.50093 M 30.00042 13.50093 L 34.001157 13.50093 M 2.000369 14.499837 L 2.999276 14.499837 M 6.001106 14.499837 L 13.001119 14.499837 M 16.999301 14.499837 L 18.000763 14.499837 M 20.001131 14.499837 L 21.998945 14.499837 M 23.999314 14.499837 L 27.001144 14.499837 M 28.998958 14.499837 L 32.000788 14.499837 M 34.001157 14.499837 L 35.000064 14.499837 M 2.000369 15.498744 L 2.999276 15.498744 M 4.000737 15.498744 L 4.999644 15.498744 M 6.001106 15.498744 L 7.99892 15.498744 M 9.000381 15.498744 L 9.999288 15.498744 M 11.00075 15.498744 L 11.999657 15.498744 M 16.000394 15.498744 L 18.99967 15.498744 M 21.998945 15.498744 L 25.999683 15.498744 M 28.000051 15.498744 L 28.998958 15.498744 M 30.999327 15.498744 L 35.000064 15.498744 M 2.000369 16.500206 L 4.000737 16.500206 M 4.999644 16.500206 L 7.000013 16.500206 M 7.99892 16.500206 L 11.999657 16.500206 M 13.001119 16.500206 L 14.000026 16.500206 M 16.000394 16.500206 L 16.999301 16.500206 M 18.99967 16.500206 L 21.998945 16.500206 M 23.000407 16.500206 L 23.999314 16.500206 M 25.999683 16.500206 L 28.998958 16.500206 M 30.00042 16.500206 L 30.999327 16.500206 M 32.999695 16.500206 L 34.001157 16.500206 M 2.000369 17.499113 L 2.999276 17.499113 M 7.000013 17.499113 L 7.99892 17.499113 M 11.999657 17.499113 L 14.000026 17.499113 M 16.000394 17.499113 L 16.999301 17.499113 M 18.000763 17.499113 L 18.99967 17.499113 M 20.001131 17.499113 L 25.000776 17.499113 M 27.001144 17.499113 L 28.998958 17.499113 M 30.00042 17.499113 L 32.999695 17.499113 M 2.000369 18.500575 L 2.999276 18.500575 M 4.000737 18.500575 L 9.000381 18.500575 M 16.000394 18.500575 L 16.999301 18.500575 M 18.000763 18.500575 L 20.001131 18.500575 M 21.000038 18.500575 L 21.998945 18.500575 M 23.999314 18.500575 L 25.000776 18.500575 M 25.999683 18.500575 L 28.000051 18.500575 M 28.998958 18.500575 L 30.999327 18.500575 M 34.001157 18.500575 L 35.000064 18.500575 M 2.999276 19.499482 L 4.000737 19.499482 M 7.000013 19.499482 L 7.99892 19.499482 M 9.999288 19.499482 L 11.00075 19.499482 M 13.001119 19.499482 L 14.998933 19.499482 M 16.000394 19.499482 L 16.999301 19.499482 M 18.000763 19.499482 L 20.001131 19.499482 M 21.000038 19.499482 L 23.999314 19.499482 M 25.000776 19.499482 L 25.999683 19.499482 M 28.000051 19.499482 L 30.00042 19.499482 M 30.999327 19.499482 L 32.999695 19.499482 M 34.001157 19.499482 L 35.000064 19.499482 M 2.000369 20.500943 L 2.999276 20.500943 M 4.000737 20.500943 L 7.000013 20.500943 M 7.99892 20.500943 L 9.999288 20.500943 M 11.00075 20.500943 L 13.001119 20.500943 M 14.000026 20.500943 L 14.998933 20.500943 M 16.000394 20.500943 L 18.000763 20.500943 M 18.99967 20.500943 L 20.001131 20.500943 M 27.001144 20.500943 L 30.999327 20.500943 M 32.000788 20.500943 L 34.001157 20.500943 M 2.000369 21.49985 L 7.99892 21.49985 M 9.999288 21.49985 L 11.999657 21.49985 M 13.001119 21.49985 L 14.000026 21.49985 M 16.999301 21.49985 L 18.000763 21.49985 M 18.99967 21.49985 L 21.000038 21.49985 M 21.998945 21.49985 L 23.999314 21.49985 M 25.999683 21.49985 L 32.999695 21.49985 M 2.999276 22.498757 L 9.999288 22.498757 M 14.998933 22.498757 L 18.99967 22.498757 M 21.998945 22.498757 L 23.000407 22.498757 M 23.999314 22.498757 L 28.000051 22.498757 M 28.998958 22.498757 L 32.000788 22.498757 M 32.999695 22.498757 L 34.001157 22.498757 M 2.000369 23.500219 L 2.999276 23.500219 M 4.000737 23.500219 L 4.999644 23.500219 M 7.000013 23.500219 L 7.99892 23.500219 M 11.00075 23.500219 L 11.999657 23.500219 M 14.000026 23.500219 L 18.000763 23.500219 M 20.001131 23.500219 L 21.000038 23.500219 M 23.000407 23.500219 L 23.999314 23.500219 M 25.000776 23.500219 L 25.999683 23.500219 M 28.000051 23.500219 L 28.998958 23.500219 M 30.999327 23.500219 L 32.000788 23.500219 M 34.001157 23.500219 L 35.000064 23.500219 M 2.000369 24.499126 L 2.999276 24.499126 M 4.999644 24.499126 L 7.000013 24.499126 M 7.99892 24.499126 L 9.999288 24.499126 M 11.999657 24.499126 L 16.000394 24.499126 M 16.999301 24.499126 L 18.99967 24.499126 M 21.998945 24.499126 L 25.000776 24.499126 M 27.001144 24.499126 L 28.998958 24.499126 M 30.00042 24.499126 L 32.000788 24.499126 M 32.999695 24.499126 L 34.001157 24.499126 M 2.000369 25.500587 L 2.999276 25.500587 M 4.000737 25.500587 L 4.999644 25.500587 M 14.000026 25.500587 L 14.998933 25.500587 M 16.000394 25.500587 L 18.000763 25.500587 M 20.001131 25.500587 L 21.000038 25.500587 M 23.000407 25.500587 L 23.999314 25.500587 M 25.999683 25.500587 L 30.00042 25.500587 M 32.000788 25.500587 L 32.999695 25.500587 M 2.000369 26.499494 L 2.999276 26.499494 M 4.000737 26.499494 L 4.999644 26.499494 M 6.001106 26.499494 L 7.000013 26.499494 M 7.99892 26.499494 L 11.00075 26.499494 M 11.999657 26.499494 L 16.000394 26.499494 M 16.999301 26.499494 L 20.001131 26.499494 M 23.999314 26.499494 L 25.000776 26.499494 M 25.999683 26.499494 L 30.999327 26.499494 M 9.999288 27.500956 L 11.999657 27.500956 M 18.000763 27.500956 L 18.99967 27.500956 M 20.001131 27.500956 L 23.000407 27.500956 M 25.999683 27.500956 L 27.001144 27.500956 M 30.00042 27.500956 L 30.999327 27.500956 M 32.000788 27.500956 L 35.000064 27.500956 M 2.000369 28.499863 L 9.000381 28.499863 M 11.999657 28.499863 L 13.001119 28.499863 M 14.000026 28.499863 L 14.998933 28.499863 M 16.999301 28.499863 L 18.99967 28.499863 M 20.001131 28.499863 L 21.000038 28.499863 M 21.998945 28.499863 L 23.000407 28.499863 M 23.999314 28.499863 L 27.001144 28.499863 M 28.000051 28.499863 L 28.998958 28.499863 M 30.00042 28.499863 L 30.999327 28.499863 M 32.000788 28.499863 L 34.001157 28.499863 M 2.000369 29.49877 L 2.999276 29.49877 M 7.99892 29.49877 L 9.000381 29.49877 M 9.999288 29.49877 L 11.999657 29.49877 M 13.001119 29.49877 L 14.000026 29.49877 M 16.000394 29.49877 L 16.999301 29.49877 M 18.000763 29.49877 L 18.99967 29.49877 M 21.000038 29.49877 L 21.998945 29.49877 M 23.000407 29.49877 L 27.001144 29.49877 M 30.00042 29.49877 L 34.001157 29.49877 M 2.000369 30.500232 L 2.999276 30.500232 M 4.000737 30.500232 L 7.000013 30.500232 M 7.99892 30.500232 L 9.000381 30.500232 M 9.999288 30.500232 L 11.00075 30.500232 M 13.001119 30.500232 L 14.000026 30.500232 M 20.001131 30.500232 L 21.000038 30.500232 M 23.000407 30.500232 L 23.999314 30.500232 M 25.999683 30.500232 L 32.000788 30.500232 M 32.999695 30.500232 L 34.001157 30.500232 M 2.000369 31.499139 L 2.999276 31.499139 M 4.000737 31.499139 L 7.000013 31.499139 M 7.99892 31.499139 L 9.000381 31.499139 M 9.999288 31.499139 L 11.00075 31.499139 M 11.999657 31.499139 L 13.001119 31.499139 M 14.000026 31.499139 L 18.99967 31.499139 M 21.998945 31.499139 L 23.999314 31.499139 M 25.999683 31.499139 L 28.000051 31.499139 M 30.00042 31.499139 L 32.000788 31.499139 M 32.999695 31.499139 L 35.000064 31.499139 M 2.000369 32.5006 L 2.999276 32.5006 M 4.000737 32.5006 L 7.000013 32.5006 M 7.99892 32.5006 L 9.000381 32.5006 M 9.999288 32.5006 L 11.00075 32.5006 M 11.999657 32.5006 L 13.001119 32.5006 M 14.000026 32.5006 L 16.000394 32.5006 M 20.001131 32.5006 L 21.998945 32.5006 M 23.000407 32.5006 L 23.999314 32.5006 M 25.000776 32.5006 L 25.999683 32.5006 M 28.000051 32.5006 L 30.00042 32.5006 M 2.000369 33.499507 L 2.999276 33.499507 M 7.99892 33.499507 L 9.000381 33.499507 M 11.999657 33.499507 L 14.998933 33.499507 M 18.000763 33.499507 L 18.99967 33.499507 M 21.000038 33.499507 L 25.000776 33.499507 M 30.00042 33.499507 L 32.999695 33.499507 M 2.000369 34.500969 L 9.000381 34.500969 M 9.999288 34.500969 L 11.00075 34.500969 M 14.000026 34.500969 L 16.999301 34.500969 M 18.99967 34.500969 L 20.001131 34.500969 M 21.000038 34.500969 L 23.000407 34.500969 M 23.999314 34.500969 L 30.00042 34.500969 M 32.999695 34.500969 L 34.001157 34.500969 " stroke="#ffffff" stroke-width="1" stroke-opacity="1" stroke-miterlimit="4"/></svg>